<svg width="150" height="120" viewBox="0 0 150 120" fill="none" xmlns="http://www.w3.org/2000/svg">
<rect x="16" y="1" width="118" height="118" rx="59" fill="white" stroke="#115F41" stroke-width="2"/>
<path fill-rule="evenodd" clip-rule="evenodd" d="M149.947 59.429C149.947 64.2239 149.947 69.0187 149.947 73.8136C149.932 75.5188 149.576 77.1244 148.876 78.6319C148.179 80.1388 147.198 81.4553 145.938 82.581C144.679 83.6925 143.205 84.5218 141.52 85.0711C131.786 88.0841 122.052 91.0986 112.318 94.1116C102.584 97.1103 92.8425 100.095 83.0945 103.063C80.3753 103.869 77.6278 104.265 74.848 104.251C72.0846 104.235 69.344 103.815 66.6252 102.995C47.28 97.0729 27.9488 91.1218 8.63426 85.1392C6.88656 84.5912 5.36865 83.7532 4.07869 82.6276C2.78655 81.5018 1.79166 80.1693 1.09425 78.6319C0.380846 77.1103 0.0158534 75.4654 0 73.6995C0 64.1257 0 54.5593 0 44.9997C0.0158534 43.2639 0.380846 41.6355 1.09425 40.1121C1.79166 38.5905 2.78655 37.2671 4.07869 36.1396C5.35279 35.014 6.85613 34.1756 8.58761 33.628C27.9488 27.6308 47.3173 21.6801 66.6945 15.7737C69.5344 14.9052 72.3962 14.4946 75.2808 14.5394C78.1672 14.586 81.0285 15.0426 83.8685 15.9094C102.925 21.771 121.975 27.6468 141.018 33.5372C142.87 34.1148 144.465 34.9679 145.801 36.0949C147.123 37.2205 148.139 38.5672 148.853 40.1354C149.583 41.6889 149.947 43.3927 149.947 45.2494C149.947 49.9694 149.947 54.6949 149.947 59.429Z" fill="white"/>
<path fill-rule="evenodd" clip-rule="evenodd" d="M74.9425 14.5374C72.3205 14.5374 69.7498 14.9385 67.2285 15.7425C59.0833 18.3348 50.9187 20.9487 42.7326 23.5837C34.5613 26.2174 26.4739 28.8394 18.4708 31.4448L10.1013 34.1508C8.58101 34.6576 7.25501 35.4256 6.12893 36.454C5.00121 37.4959 4.12118 38.723 3.48715 40.1314C2.86617 41.5398 2.54915 43.0555 2.53611 44.6753C2.53611 54.5238 2.53611 64.3795 2.53611 74.2416C2.54915 75.8762 2.87475 77.405 3.50878 78.8282C4.14281 80.2518 5.02268 81.4835 6.15057 82.5267C7.29132 83.5686 8.62193 84.3446 10.1444 84.8515L16.7177 86.9649C25.001 89.6565 33.3705 92.3677 41.8242 95.1016C50.2927 97.8342 58.7384 100.547 67.1638 103.238C69.743 104.056 72.3286 104.464 74.9209 104.464C77.5263 104.478 80.084 104.09 82.5918 103.301C91.2158 100.569 99.8526 97.7995 108.503 94.9959C117.153 92.1926 125.712 89.4168 134.181 86.6694L140.056 84.7458C141.522 84.2673 142.803 83.5128 143.903 82.4839C145.016 81.4421 145.883 80.2234 146.502 78.8282C147.122 77.4334 147.439 75.9472 147.453 74.3689C147.468 70.9164 147.468 67.4656 147.453 64.0131V44.9293C147.453 43.1811 147.136 41.5892 146.502 40.1525C145.883 38.7014 144.981 37.4549 143.797 36.4113C142.628 35.3825 141.211 34.5934 139.549 34.0452C134.66 32.4668 129.771 30.8818 124.882 29.2899C118.063 27.0776 111.173 24.8518 104.213 22.6111C97.2522 20.3561 90.2995 18.1171 83.3531 15.8896C80.5346 14.988 77.7309 14.5374 74.9425 14.5374ZM75.0481 107.021C72.1456 107.006 69.2641 106.549 66.403 105.648C57.9641 102.956 49.5167 100.243 41.063 97.5109C32.5963 94.7781 24.2204 92.0654 15.9347 89.3742L9.36163 87.2608C7.48778 86.6414 5.85334 85.6904 4.45983 84.4077C3.0496 83.1247 1.95822 81.6107 1.18401 79.8638C0.407825 78.1168 0.0130438 76.2426 0 74.2416C0 64.3795 0 54.5238 0 44.6753C0.0130438 42.6738 0.407825 40.8149 1.18401 39.0958C1.95822 37.3624 3.04284 35.8551 4.43819 34.5735C5.83356 33.3055 7.45954 32.3612 9.32071 31.7402L17.6885 29.0359C25.6912 26.4288 33.7869 23.8086 41.9731 21.1731C50.1444 18.525 58.309 15.9044 66.4672 13.312C69.3136 12.4109 72.2229 11.9734 75.1948 12.0013C78.1688 12.0292 81.1488 12.5229 84.1359 13.4807C91.0671 15.7065 98.0198 17.9468 104.994 20.2022C111.955 22.4412 118.844 24.6687 125.665 26.8794C130.553 28.4729 135.443 30.058 140.331 31.6346C142.332 32.2834 144.051 33.256 145.488 34.5519C146.924 35.8335 148.031 37.3556 148.807 39.1174C149.594 40.8922 149.989 42.8294 149.989 44.9293V64.0131C150.004 67.4786 150.004 70.9311 149.989 74.3689C149.975 76.3136 149.581 78.1447 148.807 79.8638C148.045 81.5824 146.982 83.0833 145.615 84.3646C144.234 85.6326 142.641 86.5705 140.838 87.1763L134.964 89.0783C126.495 91.8393 117.936 94.6147 109.286 97.4052C100.634 100.209 91.9902 102.977 83.3531 105.71C80.6339 106.584 77.8649 107.021 75.0481 107.021Z" fill="#115F41"/>
<path fill-rule="evenodd" clip-rule="evenodd" d="M137.69 65.4079H76.6742L75.0051 63.7387L73.3359 65.4079H12.2993V65.9777H73.3359L75.0051 67.6485L76.6742 65.9777H137.69V65.4079Z" fill="#115F41"/>
<path d="M23.1203 54.747C23.1203 55.9407 22.6863 56.8668 21.8194 57.5274C20.9559 58.1876 19.7521 58.5182 18.2066 58.5182H12.7778V45.144H17.6386C20.7774 45.144 22.3478 46.2257 22.3478 48.3869C22.3478 49.1794 22.125 49.8447 21.6807 50.3815C21.2348 50.9196 20.6075 51.2797 19.7984 51.4644C20.8633 51.5933 21.6824 51.9501 22.2552 52.5342C22.8317 53.1205 23.1203 53.8585 23.1203 54.747ZM20.5251 48.605C20.5251 47.8834 20.2758 47.3682 19.7787 47.0592C19.285 46.7473 18.5719 46.5904 17.6386 46.5904H14.5877V50.8304H17.6386C18.6032 50.8304 19.3247 50.6491 19.8049 50.2822C20.2837 49.9174 20.5251 49.3578 20.5251 48.605ZM21.2911 54.6084C21.2911 53.033 20.1832 52.2439 17.9692 52.2439H14.5877V57.065H18.1077C19.2173 57.065 20.0247 56.8604 20.5314 56.4508C21.037 56.0383 21.2911 55.4237 21.2911 54.6084ZM34.604 58.5182L33.0718 54.6084H26.9757L25.4372 58.5182H23.5614L29.0164 45.144H31.077L36.4532 58.5182H34.604ZM30.0271 46.511L29.9412 46.7752C29.7827 47.3005 29.5465 47.9739 29.2346 48.7964L27.5306 53.1949H32.5302L30.8128 48.7766C30.6362 48.3408 30.4595 47.8483 30.2845 47.2972L30.0271 46.511Z" fill="#115F41"/>
<path d="M38.1075 58.5182V45.144H39.9175V56.9991H44.5603V45.144H46.3237V56.9991H50.9665V45.144H52.7367V58.5182H38.1075Z" fill="#115F41"/>
<path d="M71.4684 54.5948C71.4684 55.7805 71.0588 56.7315 70.2401 57.4479C69.4243 58.1614 68.2983 58.5182 66.8586 58.5182H61.3109V45.144H70.1014V46.6234H63.1204V50.7974H66.7462C68.2387 50.7974 69.3981 51.1309 70.227 51.7945C71.0542 52.4603 71.4684 53.3931 71.4684 54.5948ZM69.6458 54.6147C69.6458 53.8488 69.3846 53.2642 68.8663 52.858C68.346 52.4484 67.567 52.2439 66.5285 52.2439H63.1204V57.0849H66.6075C67.641 57.0849 68.4056 56.8701 68.8993 56.4377C69.3964 56.0066 69.6458 55.3992 69.6458 54.6147Z" fill="#115F41"/>
<path d="M84.4131 49.1663C84.4131 50.4343 83.9989 51.4429 83.1717 52.191C82.3474 52.9358 81.2265 53.3073 79.8097 53.3073H75.8804V58.5182H74.0704V45.144H79.6976C81.1986 45.144 82.3593 45.4974 83.178 46.2007C84.0001 46.9007 84.4131 47.8898 84.4131 49.1663ZM82.5905 49.1861C82.5905 47.4557 81.5532 46.5904 79.4795 46.5904H75.8804V51.874H79.5522C81.5765 51.874 82.5905 50.9792 82.5905 49.1861Z" fill="#115F41"/>
<path d="M99.235 51.7683C99.235 53.1682 98.9662 54.3953 98.4294 55.4469C97.896 56.4956 97.1301 57.3012 96.1313 57.8642C95.1304 58.4289 93.9515 58.7096 92.5913 58.7096C91.2176 58.7096 90.0302 58.4323 89.0314 57.8773C88.0356 57.3194 87.2748 56.5133 86.7464 55.46C86.221 54.4033 85.9602 53.1733 85.9602 51.7683C85.9602 49.6282 86.5448 47.9556 87.7169 46.7489C88.8877 45.5434 90.5189 44.9394 92.6112 44.9394C93.9714 44.9394 95.1502 45.2099 96.1511 45.7518C97.1499 46.2932 97.9142 47.0824 98.4425 48.1158C98.9709 49.1463 99.235 50.3649 99.235 51.7683ZM97.3858 51.7683C97.3858 50.1037 96.9699 48.7993 96.1376 47.8517C95.3058 46.9006 94.1299 46.4251 92.6112 46.4251C91.0789 46.4251 89.8933 46.8943 89.0576 47.8318C88.2207 48.7664 87.8031 50.0775 87.8031 51.7683C87.8031 53.4459 88.2258 54.7782 89.0712 55.7639C89.9165 56.7462 91.0886 57.2365 92.5913 57.2365C94.1366 57.2365 95.3206 56.761 96.1444 55.81C96.9716 54.856 97.3858 53.5085 97.3858 51.7683Z" fill="#115F41"/>
<path d="M112.097 54.747C112.097 55.9407 111.663 56.8668 110.796 57.5274C109.933 58.1876 108.729 58.5182 107.184 58.5182H101.755V45.144H106.616C109.754 45.144 111.325 46.2257 111.325 48.3869C111.325 49.1794 111.102 49.8447 110.658 50.3815C110.212 50.9196 109.584 51.2797 108.775 51.4644C109.84 51.5933 110.659 51.9501 111.232 52.5342C111.809 53.1205 112.097 53.8585 112.097 54.747ZM109.502 48.605C109.502 47.8834 109.253 47.3682 108.756 47.0592C108.262 46.7473 107.548 46.5904 106.616 46.5904H103.565V50.8304H106.616C107.58 50.8304 108.302 50.6491 108.782 50.2822C109.261 49.9174 109.502 49.3578 109.502 48.605ZM110.268 54.6084C110.268 53.033 109.16 52.2439 106.946 52.2439H103.565V57.065H107.085C108.194 57.065 109.002 56.8604 109.508 56.4508C110.013 56.0383 110.268 55.4237 110.268 54.6084Z" fill="#115F41"/>
<path d="M123.581 58.5182L122.049 54.6084H115.953L114.414 58.5182H112.538L117.993 45.144H120.054L125.43 58.5182H123.581ZM119.004 46.511L118.918 46.7752C118.76 47.3005 118.523 47.9739 118.211 48.7964L116.508 53.1949H121.507L119.79 48.7766C119.613 48.3408 119.436 47.8483 119.261 47.2972L119.004 46.511Z" fill="#115F41"/>
<path d="M137.427 49.1663C137.427 50.4343 137.012 51.4429 136.185 52.191C135.361 52.9358 134.241 53.3073 132.824 53.3073H128.894V58.5182H127.084V45.144H132.712C134.212 45.144 135.373 45.4974 136.192 46.2007C137.014 46.9007 137.427 47.8898 137.427 49.1663ZM135.604 49.1861C135.604 47.4557 134.567 46.5904 132.494 46.5904H128.894V51.874H132.566C134.591 51.874 135.604 50.9792 135.604 49.1861Z" fill="#115F41"/>
<path d="M19.6731 75.5841C19.6731 76.2675 19.7787 76.7727 19.9901 77.1028C20.2049 77.4299 20.5314 77.5918 20.9674 77.5918C21.2711 77.5918 21.524 77.5106 21.7269 77.3475C21.9336 77.1856 22.0591 76.9312 22.1035 76.588L22.9686 76.6471C22.9028 77.1408 22.6915 77.5355 22.3346 77.8294C21.9813 78.1202 21.532 78.2651 20.9872 78.2651C20.2691 78.2651 19.7208 78.039 19.343 77.5851C18.968 77.1328 18.7816 76.4687 18.7816 75.5971C18.7816 74.7353 18.9697 74.0763 19.3493 73.6224C19.7275 73.1701 20.2707 72.9423 20.9809 72.9423C21.5041 72.9423 21.9399 73.0792 22.2883 73.3514C22.6353 73.6257 22.8529 73.999 22.9421 74.4745L22.0637 74.5404C22.0194 74.2548 21.907 74.0286 21.7269 73.8603C21.5456 73.6934 21.2877 73.6092 20.9541 73.6092C20.5054 73.6092 20.1781 73.7611 19.977 74.0649C19.7736 74.3654 19.6731 74.8706 19.6731 75.5841ZM27.8165 73.0344V78.173H26.9644V73.6554H24.752V78.173H23.8999V73.0344H27.8165Z" fill="#115F41"/>
<path d="M33.4847 75.5841C33.4847 77.3721 32.854 78.2652 31.5957 78.2652C30.8032 78.2652 30.2697 77.968 29.9976 77.3738H29.9776C29.9908 77.4004 29.9976 77.6691 29.9976 78.1793V80.1871H29.139V74.0847C29.139 73.5564 29.129 73.2065 29.1124 73.0344H29.938C29.9413 73.048 29.9464 73.0941 29.951 73.1735C29.9594 73.2491 29.9662 73.3683 29.9709 73.5298C29.9794 73.6934 29.9844 73.8042 29.9844 73.8604H30.0039C30.1577 73.5434 30.3572 73.3122 30.6049 73.1667C30.856 73.0214 31.1861 72.9486 31.5957 72.9486C32.2297 72.9486 32.702 73.1599 33.0155 73.5826C33.3279 74.0053 33.4847 74.6723 33.4847 75.5841ZM32.5865 75.5971C32.5865 74.8837 32.4888 74.3752 32.2956 74.0717C32.1008 73.7644 31.7956 73.6092 31.3776 73.6092C31.0378 73.6092 30.772 73.6804 30.5788 73.8206C30.3889 73.9627 30.2436 74.1838 30.1426 74.4876C30.0453 74.7916 29.9976 75.1842 29.9976 75.6632C29.9976 76.342 30.1032 76.8419 30.3146 77.1624C30.5293 77.4794 30.8793 77.6379 31.3645 77.6379C31.7905 77.6379 32.1008 77.4827 32.2956 77.1692C32.4888 76.8568 32.5865 76.3335 32.5865 75.5971Z" fill="#115F41"/>
<path d="M35.8657 78.2651C35.3454 78.2651 34.9555 78.1316 34.6965 77.8623C34.4404 77.5902 34.3136 77.2152 34.3136 76.7397C34.3136 76.2079 34.4868 75.8 34.8352 75.5177C35.1817 75.2324 35.7464 75.0785 36.5259 75.0557L37.6815 75.0422V74.7585C37.6815 74.3405 37.5911 74.0416 37.4109 73.8603C37.2342 73.6804 36.957 73.5894 36.5788 73.5894C36.1957 73.5894 35.9152 73.6554 35.7402 73.7877C35.5681 73.9161 35.4641 74.1228 35.4294 74.4081L34.538 74.3291C34.6834 73.4043 35.3703 72.9423 36.5985 72.9423C37.2458 72.9423 37.7314 73.0906 38.0582 73.3848C38.3836 73.6804 38.5467 74.1093 38.5467 74.6723V76.8784C38.5467 77.1345 38.5797 77.326 38.6461 77.4532C38.712 77.5816 38.8375 77.6447 39.0222 77.6447C39.1051 77.6447 39.2007 77.6345 39.3064 77.6117V78.1464C39.0899 78.1942 38.8705 78.2191 38.6461 78.2191C38.3291 78.2191 38.0978 78.1383 37.9525 77.9747C37.807 77.8078 37.7246 77.5453 37.7081 77.189H37.6815C37.4604 77.5816 37.206 77.859 36.9156 78.0208C36.6281 78.1828 36.2782 78.2651 35.8657 78.2651ZM36.0572 77.6247C36.3691 77.6247 36.6463 77.5555 36.889 77.4133C37.135 77.2732 37.3282 77.08 37.4702 76.8322C37.6105 76.5812 37.6815 76.3238 37.6815 76.0596V75.6369L36.744 75.6567C36.3425 75.6614 36.039 75.7028 35.8323 75.7819C35.6243 75.858 35.4658 75.9738 35.3567 76.1323C35.2465 76.2908 35.1918 76.4988 35.1918 76.7527C35.1918 77.0305 35.2663 77.2464 35.4164 77.4003C35.5651 77.5504 35.7794 77.6247 36.0572 77.6247Z" fill="#115F41"/>
<path d="M41.9827 73.0344C42.6168 73.0344 43.0923 73.1469 43.4093 73.3712C43.7263 73.5928 43.8848 73.9098 43.8848 74.3223C43.8848 74.6182 43.794 74.8642 43.6143 75.062C43.4326 75.2568 43.1718 75.3858 42.8281 75.4518V75.4847C43.2326 75.5375 43.5366 75.6681 43.7394 75.8745C43.9461 76.0824 44.0501 76.355 44.0501 76.6936C44.0501 77.1556 43.8751 77.519 43.5281 77.7832C43.1849 78.0441 42.706 78.173 42.0951 78.173H39.9817V73.0344H41.9827ZM40.8335 77.539H41.9566C42.3923 77.539 42.6979 77.4726 42.8746 77.3407C43.0543 77.2055 43.1451 76.989 43.1451 76.6936C43.1451 76.3766 43.0496 76.1517 42.8611 76.0198C42.6713 75.8875 42.3492 75.8217 41.897 75.8217H40.8335V77.539ZM40.8335 73.6883V75.2075H41.864C42.2685 75.2075 42.5576 75.1512 42.7292 75.0357C42.9008 74.9217 42.9866 74.7222 42.9866 74.4347C42.9866 74.1757 42.9042 73.9855 42.7423 73.8668C42.5838 73.7479 42.3129 73.6883 41.9298 73.6883H40.8335Z" fill="#115F41"/>
<path d="M47.1855 75.9074C47.1014 75.9074 47.0072 75.8995 46.9015 75.8811C46.7992 75.8648 46.7198 75.8415 46.6635 75.8153L45.3426 78.173H44.3916L46.0692 75.3592C45.9585 75.2717 45.7556 75.0126 45.4618 74.5802L44.4381 73.0344H45.3295L46.0295 74.1705C46.2362 74.5057 46.3964 74.7484 46.5118 74.8972C46.6259 75.0422 46.7299 75.1449 46.822 75.2007C46.918 75.2587 47.0401 75.2869 47.1855 75.2869V73.0344H48.0373V75.2869C48.1332 75.2869 48.219 75.2733 48.2951 75.2471C48.3695 75.2205 48.4468 75.1677 48.5263 75.0886C48.6087 75.0092 48.7047 74.8972 48.8104 74.7517C48.916 74.6065 49.2757 74.0353 49.8933 73.0344H50.7847L49.7614 74.5802C49.4655 75.0126 49.2626 75.2717 49.1536 75.3592L50.8312 78.173H49.8802L48.5593 75.8153C48.4963 75.8415 48.4156 75.8648 48.315 75.8811C48.2123 75.8995 48.1201 75.9074 48.0373 75.9074V78.173H47.1855V75.9074Z" fill="#115F41"/>
<path d="M52.3982 73.0344V75.2075H54.7098V73.0344H55.5683V78.173H54.7098V75.8347H52.3982V78.173H51.546V73.0344H52.3982Z" fill="#115F41"/>
<path d="M58.9201 78.2651C58.1885 78.2651 57.6288 78.039 57.2425 77.5851C56.8545 77.1328 56.6613 76.4687 56.6613 75.5971C56.6613 74.7433 56.8528 74.0882 57.2357 73.6292C57.6221 73.1718 58.1817 72.9423 58.9134 72.9423C59.4548 72.9423 59.8991 73.0742 60.2474 73.3384C60.599 73.6026 60.8222 73.9706 60.9144 74.4415L60.036 74.5074C59.9337 73.8866 59.5508 73.5763 58.8868 73.5763C58.4459 73.5763 58.1208 73.7083 57.9095 73.9724C57.6982 74.2366 57.5794 74.6659 57.5528 75.2603H59.5144V75.8875H57.5528C57.609 77.047 58.0579 77.6247 58.9003 77.6247C59.2173 77.6247 59.4781 77.5436 59.686 77.3805C59.8974 77.2185 60.0297 76.9641 60.0825 76.6208L60.9473 76.6801C60.8763 77.1657 60.6603 77.5504 60.3002 77.836C59.9435 78.1235 59.4832 78.2651 58.9201 78.2651Z" fill="#115F41"/>
<path d="M64.552 73.0344H65.4105V75.2869C65.503 75.2869 65.5855 75.2733 65.6615 75.2471C65.7406 75.2205 65.8201 75.1677 65.8991 75.0886C65.982 75.0092 66.0741 74.8972 66.1764 74.7517C66.2821 74.6065 66.6456 74.0353 67.2665 73.0344H68.1579L67.1274 74.5802C66.837 75.0126 66.6342 75.2717 66.52 75.3592L68.1977 78.173H67.2466L65.9321 75.8153C65.8695 75.8415 65.7871 75.8648 65.6814 75.8811C65.5787 75.8995 65.4899 75.9074 65.4105 75.9074V78.173H64.552V73.0344Z" fill="#115F41"/>
<path d="M73.1507 75.5841C73.1507 77.3721 72.5201 78.2652 71.2621 78.2652C70.4696 78.2652 69.9362 77.968 69.6636 77.3738H69.6441C69.6572 77.4004 69.6636 77.6691 69.6636 78.1793V80.1871H68.8051V74.0847C68.8051 73.5564 68.7954 73.2065 68.7789 73.0344H69.6044C69.6078 73.048 69.6124 73.0941 69.6175 73.1735C69.6259 73.2491 69.6323 73.3683 69.6373 73.5298C69.6458 73.6934 69.6505 73.8042 69.6505 73.8604H69.6703C69.8238 73.5434 70.0237 73.3122 70.2714 73.1667C70.5224 73.0214 70.8526 72.9486 71.2621 72.9486C71.8962 72.9486 72.3683 73.1599 72.6819 73.5826C72.9939 74.0053 73.1507 74.6723 73.1507 75.5841ZM72.2529 75.5971C72.2529 74.8837 72.1553 74.3752 71.9621 74.0717C71.7673 73.7644 71.4617 73.6092 71.044 73.6092C70.7038 73.6092 70.4383 73.6804 70.2452 73.8206C70.055 73.9627 69.91 74.1838 69.809 74.4876C69.7117 74.7916 69.6636 75.1842 69.6636 75.6632C69.6636 76.342 69.7692 76.8419 69.9806 77.1624C70.1953 77.4794 70.5453 77.6379 71.0309 77.6379C71.457 77.6379 71.7673 77.4827 71.9621 77.1692C72.1553 76.8568 72.2529 76.3335 72.2529 75.5971Z" fill="#115F41"/>
<path d="M75.53 78.2651C75.0101 78.2651 74.6204 78.1316 74.3613 77.8623C74.1051 77.5902 73.9783 77.2152 73.9783 76.7397C73.9783 76.2079 74.1516 75.8 74.4999 75.5177C74.8465 75.2324 75.4112 75.0785 76.1907 75.0557L77.3463 75.0422V74.7585C77.3463 74.3405 77.2554 74.0416 77.0758 73.8603C76.8991 73.6804 76.6214 73.5894 76.2435 73.5894C75.8606 73.5894 75.5799 73.6554 75.4049 73.7877C75.2329 73.9161 75.1289 74.1228 75.0942 74.4081L74.2028 74.3291C74.3482 73.4043 75.035 72.9423 76.2634 72.9423C76.9105 72.9423 77.3957 73.0906 77.7229 73.3848C78.0479 73.6804 78.2115 74.1093 78.2115 74.6723V76.8784C78.2115 77.1345 78.2445 77.326 78.3109 77.4532C78.3768 77.5816 78.5023 77.6447 78.687 77.6447C78.7695 77.6447 78.8654 77.6345 78.9711 77.6117V78.1464C78.7547 78.1942 78.5353 78.2191 78.3109 78.2191C77.9938 78.2191 77.7626 78.1383 77.6172 77.9747C77.4718 77.8078 77.3894 77.5453 77.3729 77.189H77.3463C77.1252 77.5816 76.8708 77.859 76.5804 78.0208C76.293 78.1828 75.943 78.2651 75.53 78.2651ZM75.7219 77.6247C76.0338 77.6247 76.3111 77.5555 76.5538 77.4133C76.7998 77.2732 76.9929 77.08 77.1349 76.8322C77.2753 76.5812 77.3463 76.3238 77.3463 76.0596V75.6369L76.4088 75.6567C76.0072 75.6614 75.7037 75.7028 75.497 75.7819C75.2891 75.858 75.1306 75.9738 75.0215 76.1323C74.9112 76.2908 74.8567 76.4988 74.8567 76.7527C74.8567 77.0305 74.9306 77.2464 75.0811 77.4003C75.2295 77.5504 75.4442 77.6247 75.7219 77.6247Z" fill="#115F41"/>
<path d="M86.5629 75.5841C86.5629 76.4823 86.4141 77.1543 86.1204 77.5981C85.83 78.0441 85.3971 78.2652 84.8261 78.2652C84.1126 78.2652 83.6303 77.968 83.3797 77.3738H83.353C83.3661 77.651 83.3729 77.9203 83.3729 78.1793V80.1871H82.5673V78.1793C82.5673 77.8361 82.5753 77.5589 82.5935 77.3475H82.5673C82.4219 77.6776 82.2304 77.9135 81.9924 78.0538C81.7583 78.1942 81.4658 78.2652 81.1141 78.2652C80.5232 78.2652 80.0874 78.0509 79.8067 77.6181C79.5244 77.1822 79.384 76.5203 79.384 75.6302C79.384 73.8389 79.9602 72.9423 81.1141 72.9423C81.4708 72.9423 81.7646 73.015 81.9992 73.1599C82.2372 73.302 82.4253 73.5265 82.5673 73.8338H82.5935L82.5673 73.1207V71.1259H83.3729V73.1207L83.3598 73.8604H83.386C83.5314 73.5349 83.7166 73.302 83.941 73.1599C84.1688 73.0196 84.4643 72.9486 84.8261 72.9486C85.4073 72.9486 85.8397 73.1651 86.1271 73.5962C86.4175 74.0286 86.5629 74.6905 86.5629 75.5841ZM80.2822 75.5971C80.2822 76.3103 80.368 76.8238 80.5397 77.1362C80.7113 77.4499 80.9839 77.6049 81.3584 77.6049C81.768 77.6049 82.0685 77.4515 82.2634 77.1426C82.4565 76.8305 82.5571 76.3352 82.5673 75.6568V75.5443C82.5673 74.8756 82.4713 74.3803 82.2832 74.0581C82.0981 73.7378 81.7912 73.5764 81.3652 73.5764C80.9822 73.5764 80.7049 73.7395 80.5329 74.0649C80.3647 74.3917 80.2822 74.9019 80.2822 75.5971ZM85.6647 75.5971C85.6647 74.9103 85.5789 74.4082 85.4073 74.0912C85.2386 73.7712 84.9664 73.6092 84.5881 73.6092C84.2876 73.6092 84.0547 73.682 83.8882 73.827C83.7195 73.9725 83.5927 74.1955 83.5052 74.4944C83.416 74.7945 83.3729 75.1842 83.3729 75.6632V75.7755C83.3814 76.4095 83.4803 76.8784 83.6701 77.1822C83.8632 77.4862 84.1654 77.6379 84.575 77.6379C84.9529 77.6379 85.2289 77.476 85.4005 77.1492C85.5755 76.8238 85.6647 76.3073 85.6647 75.5971Z" fill="#115F41"/>
<path d="M86.9243 73.0344H91.0455V73.6554H89.4143V78.173H88.5559V73.6554H86.9243V73.0344Z" fill="#115F41"/>
<path d="M96.1063 75.5971C96.1063 76.5004 95.908 77.1725 95.512 77.6117C95.1155 78.0474 94.5411 78.2651 93.7883 78.2651C93.0384 78.2651 92.4737 78.039 92.0908 77.5851C91.7078 77.1277 91.5164 76.4658 91.5164 75.5971C91.5164 73.8269 92.2823 72.9423 93.8145 72.9423C94.602 72.9423 95.1819 73.1583 95.5517 73.5894C95.9216 74.0218 96.1063 74.6905 96.1063 75.5971ZM95.2081 75.5971C95.2081 74.8888 95.1024 74.3751 94.8911 74.0581C94.6797 73.7378 94.3264 73.5763 93.8344 73.5763C93.3326 73.5763 92.9691 73.7394 92.7447 74.0649C92.5236 74.3917 92.4146 74.9018 92.4146 75.5971C92.4146 76.2756 92.5236 76.7857 92.7447 77.1293C92.9645 77.4696 93.3094 77.6379 93.7815 77.6379C94.2917 77.6379 94.6565 77.4726 94.878 77.1426C95.0973 76.8123 95.2081 76.2972 95.2081 75.5971Z" fill="#115F41"/>
<path d="M99.194 73.0344C99.8281 73.0344 100.304 73.1469 100.621 73.3712C100.938 73.5928 101.096 73.9098 101.096 74.3223C101.096 74.6182 101.005 74.8642 100.825 75.062C100.643 75.2568 100.383 75.3858 100.039 75.4518V75.4847C100.444 75.5375 100.748 75.6681 100.951 75.8745C101.157 76.0824 101.261 76.355 101.261 76.6936C101.261 77.1556 101.086 77.519 100.739 77.7832C100.396 78.0441 99.9173 78.173 99.3061 78.173H97.1926V73.0344H99.194ZM98.0448 77.539H99.1674C99.6036 77.539 99.9088 77.4726 100.085 77.3407C100.266 77.2055 100.356 76.989 100.356 76.6936C100.356 76.3766 100.26 76.1517 100.072 76.0198C99.8826 75.8875 99.5605 75.8217 99.1082 75.8217H98.0448V77.539ZM98.0448 73.6883V75.2075H99.0753C99.4798 75.2075 99.7685 75.1512 99.9401 75.0357C100.112 74.9217 100.198 74.7222 100.198 74.4347C100.198 74.1757 100.115 73.9855 99.9536 73.8668C99.7951 73.7479 99.5242 73.6883 99.1412 73.6883H98.0448Z" fill="#115F41"/>
<path d="M102.878 75.7819C102.878 76.3732 102.998 76.8289 103.241 77.1492C103.487 77.4662 103.844 77.6247 104.311 77.6247C104.684 77.6247 104.981 77.552 105.202 77.4067C105.427 77.2583 105.579 77.0681 105.658 76.8386L106.404 77.0499C106.101 77.8606 105.402 78.2651 104.311 78.2651C103.553 78.2651 102.977 78.0408 102.581 77.5918C102.184 77.1391 101.986 76.4658 101.986 75.5705C101.986 74.7222 102.184 74.0717 102.581 73.6224C102.977 73.1701 103.541 72.9423 104.278 72.9423C105.787 72.9423 106.543 73.8519 106.543 75.6698V75.7819H102.878ZM105.664 75.1284C105.615 74.5865 105.476 74.1938 105.249 73.9462C105.019 73.7001 104.691 73.5763 104.265 73.5763C103.85 73.5763 103.521 73.7148 103.281 73.9923C103.038 74.2662 102.907 74.6444 102.891 75.1284H105.664Z" fill="#115F41"/>
<path d="M114.267 73.0344V78.173H113.415V73.6554H111.202V78.173H110.35V73.0344H114.267Z" fill="#115F41"/>
<path d="M116.437 73.0344V75.8483L116.39 77.1624L118.761 73.0344H119.693V78.173H118.88V75.0422C118.88 74.9284 118.884 74.7569 118.893 74.5274C118.906 74.2944 118.916 74.1291 118.926 74.0319L116.522 78.173H115.611V73.0344H116.437Z" fill="#115F41"/>
<path d="M123.043 73.0344C123.677 73.0344 124.152 73.1469 124.469 73.3712C124.786 73.5928 124.945 73.9098 124.945 74.3223C124.945 74.6182 124.854 74.8642 124.674 75.062C124.492 75.2568 124.231 75.3858 123.888 75.4518V75.4847C124.293 75.5375 124.596 75.6681 124.799 75.8745C125.006 76.0824 125.11 76.355 125.11 76.6936C125.11 77.1556 124.935 77.519 124.588 77.7832C124.244 78.0441 123.766 78.173 123.155 78.173H121.041V73.0344H123.043ZM121.893 77.539H123.016C123.452 77.539 123.757 77.4726 123.934 77.3407C124.114 77.2055 124.205 76.989 124.205 76.6936C124.205 76.3766 124.109 76.1517 123.921 76.0198C123.731 75.8875 123.409 75.8217 122.957 75.8217H121.893V77.539ZM121.893 73.6883V75.2075H122.923C123.328 75.2075 123.617 75.1512 123.789 75.0357C123.961 74.9217 124.047 74.7222 124.047 74.4347C124.047 74.1757 123.964 73.9855 123.802 73.8668C123.644 73.7479 123.373 73.6883 122.99 73.6883H121.893Z" fill="#115F41"/>
<path d="M130.418 75.5971C130.418 76.5004 130.22 77.1725 129.824 77.6117C129.427 78.0474 128.853 78.2651 128.1 78.2651C127.35 78.2651 126.786 78.039 126.403 77.5851C126.02 77.1277 125.828 76.4658 125.828 75.5971C125.828 73.8269 126.594 72.9423 128.126 72.9423C128.914 72.9423 129.493 73.1583 129.863 73.5894C130.233 74.0218 130.418 74.6905 130.418 75.5971ZM129.52 75.5971C129.52 74.8888 129.414 74.3751 129.203 74.0581C128.992 73.7378 128.638 73.5763 128.146 73.5763C127.644 73.5763 127.281 73.7394 127.057 74.0649C126.835 74.3917 126.726 74.9018 126.726 75.5971C126.726 76.2756 126.835 76.7857 127.057 77.1293C127.276 77.4696 127.621 77.6379 128.093 77.6379C128.604 77.6379 128.968 77.4726 129.19 77.1426C129.409 76.8123 129.52 76.2972 129.52 75.5971Z" fill="#115F41"/>
</svg>
