<svg width="60" height="95" viewBox="0 0 60 95" fill="none" xmlns="http://www.w3.org/2000/svg">
<path fill-rule="evenodd" clip-rule="evenodd" d="M1.60219 47.3942C1.60219 49.0497 1.85548 50.673 2.36312 52.2651C4.00001 57.4082 5.65052 62.5636 7.31437 67.7327C8.97741 72.8924 10.633 77.999 12.2782 83.0525L13.9868 88.3373C14.3069 89.2973 14.7918 90.1346 15.4412 90.8456C16.0991 91.5577 16.8739 92.1134 17.7632 92.5137C18.6525 92.9058 19.6096 93.106 20.6324 93.1142C26.8511 93.1142 33.0744 93.1142 39.3017 93.1142C40.3338 93.106 41.2991 92.9004 42.1978 92.5001C43.0967 92.0997 43.8745 91.5441 44.5332 90.8319C45.1911 90.1116 45.6811 89.2714 46.0011 88.3101L47.3356 84.1595C49.0352 78.9291 50.7471 73.6443 52.4735 68.3063C54.1989 62.9589 55.9119 57.626 57.6113 52.3059C58.1274 50.6773 58.3849 49.0447 58.3849 47.4078C58.3943 45.7626 58.1493 44.1476 57.651 42.5641C55.9255 37.1185 54.177 31.665 52.4067 26.2029C50.6366 20.7408 48.8839 15.3361 47.149 9.98878L45.9344 6.27915C45.6323 5.35355 45.1558 4.5443 44.5062 3.85011C43.8483 3.14735 43.0788 2.59995 42.1978 2.20894C41.3171 1.81713 40.3787 1.61696 39.3821 1.60841C37.202 1.59908 35.023 1.59908 32.843 1.60841H20.7928C19.6889 1.60841 18.6837 1.80859 17.7765 2.20894C16.8603 2.59995 16.0732 3.16924 15.4142 3.91682C14.7646 4.6548 14.2663 5.54945 13.9201 6.59943C12.9235 9.68639 11.9226 12.7733 10.9175 15.8606C9.52055 20.1664 8.11506 24.5169 6.70023 28.9114C5.27633 33.307 3.86256 37.6972 2.456 42.0834C1.88671 43.8631 1.60219 45.6334 1.60219 47.3942ZM60 47.3274C59.9906 49.1602 59.7018 50.9797 59.1326 52.7863C57.4332 58.115 55.7202 63.4489 53.9948 68.7869C52.2692 74.1331 50.5563 79.422 48.857 84.6539L47.5225 88.8044C47.1314 89.9876 46.5309 91.0196 45.7209 91.8995C44.9108 92.79 43.9548 93.4791 42.8517 93.968C41.7486 94.4581 40.5652 94.7074 39.3017 94.7156C33.0744 94.7156 26.8511 94.7156 20.6324 94.7156C19.3686 94.7074 18.1948 94.4581 17.1093 93.968C16.0147 93.4791 15.063 92.7943 14.2537 91.9132C13.453 91.0321 12.8568 90.0054 12.4647 88.8302L10.7571 83.5464C9.11086 78.4933 7.45636 73.3813 5.79224 68.2122C4.12012 63.0526 2.46534 57.8972 0.828453 52.7458C0.259422 50.9485 -0.016819 49.1114 0.000797272 47.2348C0.0184135 45.3569 0.330151 43.4753 0.934944 41.5891C2.34044 37.2125 3.755 32.8223 5.17917 28.4184C6.59294 24.0229 7.9995 19.6732 9.39538 15.3663C10.4016 12.2793 11.4025 9.19209 12.398 6.10513C12.8077 4.84163 13.4218 3.75615 14.2401 2.84923C15.0494 1.94204 16.0105 1.24356 17.1229 0.75354C18.2436 0.256302 19.4668 0.00701904 20.7928 0.00701904H32.843C35.0313 -0.00231934 37.2113 -0.00231934 39.3821 0.00701904C40.61 0.015564 41.7662 0.26458 42.8517 0.75354C43.937 1.23422 44.8847 1.90574 45.6937 2.76889C46.4944 3.64059 47.0866 4.64653 47.4691 5.78512L48.6701 9.49448C50.4135 14.8418 52.166 20.2465 53.9281 25.7086C55.6983 31.1718 57.4465 36.6296 59.1721 42.0834C59.7237 43.8004 60 45.5488 60 47.3274Z" fill="#A59C88"/>
<path fill-rule="evenodd" clip-rule="evenodd" d="M30.0269 3.43612C32.8294 3.43612 35.6318 3.43612 38.4342 3.43612C39.4308 3.44547 40.3693 3.65392 41.2503 4.06387C42.1311 4.47249 42.9005 5.04686 43.5585 5.7851C44.2081 6.52308 44.6928 7.3865 45.0138 8.37376C46.7748 14.0766 48.5367 19.7794 50.2977 25.4825C52.0504 31.1854 53.7946 36.8925 55.5294 42.6036C56.0005 44.1967 56.2321 45.8064 56.2236 47.435C56.2143 49.054 55.9693 50.6596 55.4896 52.2525C52.0285 63.5864 48.5502 74.912 45.0537 86.2279C44.7334 87.2518 44.2436 88.1411 43.5857 88.8969C42.9277 89.6539 42.1489 90.2368 41.2503 90.6454C40.361 91.0634 39.3997 91.2772 38.3675 91.2865C32.772 91.2865 27.1807 91.2865 21.5935 91.2865C20.579 91.2772 19.6272 91.0634 18.7368 90.6454C17.8475 90.2368 17.0741 89.6539 16.4151 88.8969C15.7572 88.1504 15.2672 87.2697 14.9471 86.2552C11.442 74.912 7.964 63.5645 4.51192 52.2119C4.00428 50.5481 3.76434 48.8714 3.7905 47.1814C3.81772 45.4903 4.08462 43.814 4.59119 42.1501C8.01711 30.9852 11.4513 19.8243 14.894 8.66788C15.2317 7.5824 15.7302 6.64825 16.3889 5.86544C17.0468 5.09063 17.8339 4.49545 18.7505 4.07722C19.6584 3.64991 20.6542 3.43612 21.7395 3.43612C24.4981 3.43612 27.26 3.43612 30.0269 3.43612Z" fill="black"/>
<path fill-rule="evenodd" clip-rule="evenodd" d="M33.7238 7.77324L33.7238 46.3007L32.6698 47.3546L33.7238 48.4086V86.9494H34.0836V48.4086L35.1386 47.3546L34.0836 46.3007L34.0836 7.77324H33.7238Z" fill="#A59C88"/>
<path d="M26.992 80.1166C27.7458 80.1166 28.3305 80.3907 28.7477 80.938C29.1646 81.4833 29.3733 82.2434 29.3733 83.2193V86.6473H20.9284V83.5779C20.9284 81.596 21.6114 80.6044 22.976 80.6044C23.4764 80.6044 23.8965 80.7451 24.2355 81.0256C24.5753 81.3072 24.8027 81.7033 24.9193 82.2142C25.0007 81.5418 25.226 81.0246 25.5948 80.6629C25.965 80.2988 26.431 80.1166 26.992 80.1166ZM23.1137 81.7553C22.6581 81.7553 22.3328 81.9128 22.1377 82.2267C21.9407 82.5384 21.8417 82.9887 21.8417 83.5779V85.5044H24.519V83.5779C24.519 82.9689 24.4045 82.5133 24.1728 82.2101C23.9424 81.9077 23.5891 81.7553 23.1137 81.7553ZM26.9045 81.2717C25.9098 81.2717 25.4115 81.9712 25.4115 83.3692V85.5044H28.4557V83.2818C28.4557 82.5811 28.3265 82.0713 28.0679 81.7514C27.8074 81.4321 27.4193 81.2717 26.9045 81.2717ZM29.3733 72.8654L26.9045 73.8329V77.6822L29.3733 78.6536V79.8381L20.9284 76.3936V75.0924L29.3733 71.6977V72.8654ZM21.7915 75.7554L21.9583 75.8096C22.2901 75.9097 22.7152 76.0589 23.2346 76.2558L26.012 77.3318V74.1749L23.2221 75.2593C22.9469 75.3708 22.636 75.4824 22.2879 75.5929L21.7915 75.7554Z" fill="white"/>
<path d="M29.3733 70.6531H20.9284V69.5102H28.4141V66.5786H20.9284V65.4651H28.4141V62.5334H20.9284V61.4157H29.3733V70.6531Z" fill="white"/>
<path d="M26.896 49.5878C27.6446 49.5878 28.2451 49.8464 28.6975 50.3634C29.148 50.8785 29.3733 51.5895 29.3733 52.4986V56.0016H20.9284V50.4509H21.8625V54.8591H24.4981V52.5696C24.4981 51.6272 24.7087 50.8951 25.1277 50.3717C25.5481 49.8494 26.1372 49.5878 26.896 49.5878ZM26.9085 50.7387C26.4249 50.7387 26.0558 50.9036 25.7993 51.2308C25.5406 51.5594 25.4115 52.0513 25.4115 52.707V54.8591H28.4683V52.6571C28.4683 52.0046 28.3327 51.5217 28.0596 51.21C27.7874 50.8961 27.4039 50.7387 26.9085 50.7387Z" fill="white"/>
<path d="M23.4682 41.414C24.2689 41.414 24.9057 41.6756 25.3781 42.1979C25.8484 42.7183 26.083 43.4262 26.083 44.3208V46.8019H29.3733V47.9448H20.9284V44.3915C20.9284 43.4438 21.1515 42.7109 21.5956 42.1939C22.0376 41.6748 22.6621 41.414 23.4682 41.414ZM23.4807 42.5649C22.388 42.5649 21.8417 43.2198 21.8417 44.5293V46.8019H25.1779V44.4833C25.1779 43.2052 24.6129 42.5649 23.4807 42.5649Z" fill="white"/>
<path d="M25.1112 32.0549C25.9952 32.0549 26.77 32.2247 27.434 32.5636C28.0962 32.9004 28.6049 33.3841 28.9604 34.0147C29.317 34.6468 29.4942 35.3911 29.4942 36.25C29.4942 37.1174 29.3191 37.8672 28.9687 38.4978C28.6164 39.1267 28.1074 39.6071 27.4423 39.9407C26.775 40.2725 25.9984 40.4371 25.1112 40.4371C23.7599 40.4371 22.7038 40.068 21.9418 39.3279C21.1806 38.5886 20.7992 37.5586 20.7992 36.2375C20.7992 35.3786 20.97 34.6342 21.3122 34.0022C21.654 33.3715 22.1523 32.889 22.8049 32.5553C23.4556 32.2217 24.2251 32.0549 25.1112 32.0549ZM25.1112 33.2226C24.0601 33.2226 23.2365 33.4852 22.6381 34.0107C22.0376 34.536 21.7373 35.2785 21.7373 36.2375C21.7373 37.205 22.0336 37.9536 22.6256 38.4813C23.2157 39.0098 24.0436 39.2735 25.1112 39.2735C26.1705 39.2735 27.0118 39.0066 27.6342 38.4728C28.2545 37.939 28.5641 37.1988 28.5641 36.25C28.5641 35.2742 28.2638 34.5267 27.6633 34.0065C27.0609 33.4841 26.21 33.2226 25.1112 33.2226Z" fill="white"/>
<path d="M26.992 23.9332C27.7458 23.9332 28.3305 24.2073 28.7477 24.7547C29.1646 25.3 29.3733 26.0601 29.3733 27.0359V30.4639H20.9284V27.3946C20.9284 25.4126 21.6114 24.4211 22.976 24.4211C23.4764 24.4211 23.8965 24.5617 24.2355 24.8422C24.5753 25.1238 24.8027 25.5199 24.9193 26.0307C25.0007 25.3584 25.226 24.8412 25.5948 24.4795C25.965 24.1155 26.431 23.9332 26.992 23.9332ZM23.1137 25.5722C22.6581 25.5722 22.3328 25.7294 22.1377 26.0433C21.9407 26.355 21.8417 26.8055 21.8417 27.3946V29.3211H24.519V27.3946C24.519 26.7855 24.4045 26.3299 24.1728 26.0267C23.9424 25.7243 23.5891 25.5722 23.1137 25.5722ZM26.9045 25.0883C25.9098 25.0883 25.4115 25.7879 25.4115 27.1859V29.3211H28.4557V27.0983C28.4557 26.3977 28.3265 25.8879 28.0679 25.5679C27.8074 25.249 27.4193 25.0883 26.9045 25.0883Z" fill="white"/>
<path d="M29.3733 16.682L26.9045 17.6496V21.4988L29.3733 22.4703V23.6548L20.9284 20.2102V18.9091L29.3733 15.5144V16.682ZM21.7915 19.572L21.9583 19.6262C22.2901 19.7263 22.7152 19.8755 23.2346 20.0725L26.012 21.1483V17.9915L23.2221 19.0759C22.9469 19.1874 22.636 19.299 22.2879 19.4095L21.7915 19.572Z" fill="white"/>
<path d="M23.4682 7.93897C24.2689 7.93897 24.9057 8.2008 25.3781 8.72313C25.8484 9.24331 26.083 9.95113 26.083 10.8458V13.3271H29.3733V14.4697H20.9284V10.9165C20.9284 9.96901 21.1515 9.23584 21.5956 8.71885C22.0376 8.19973 22.6621 7.93897 23.4682 7.93897ZM23.4807 9.09011C22.388 9.09011 21.8417 9.74481 21.8417 11.0542V13.3271H25.1779V11.0083C25.1779 9.73013 24.6129 9.09011 23.4807 9.09011Z" fill="white"/>
<path d="M40.1494 82.2934C40.5809 82.2934 40.8999 82.2266 41.1083 82.0932C41.3149 81.9576 41.4172 81.7514 41.4172 81.4761C41.4172 81.2843 41.3659 81.1246 41.2629 80.9965C41.1607 80.866 41 80.7868 40.7833 80.7587L40.8206 80.2124C41.1323 80.254 41.3816 80.3874 41.5672 80.6128C41.7508 80.8359 41.8423 81.1195 41.8423 81.4636C41.8423 81.917 41.6995 82.2632 41.4129 82.5018C41.1273 82.7386 40.708 82.8563 40.1576 82.8563C39.6134 82.8563 39.1973 82.7375 38.9107 82.4978C38.6251 82.259 38.4813 81.916 38.4813 81.4676C38.4813 81.1372 38.5677 80.862 38.7396 80.642C38.9128 80.4229 39.1485 80.2855 39.4488 80.2292L39.4904 80.7838C39.31 80.8118 39.1672 80.8828 39.0609 80.9965C38.9555 81.111 38.9024 81.2738 38.9024 81.4845C38.9024 81.7678 38.9983 81.9745 39.1901 82.1014C39.3799 82.2299 39.6989 82.2934 40.1494 82.2934ZM38.5394 77.1513H41.7841V77.6894H38.9316V79.0863H41.7841V79.6244H38.5394V77.1513Z" fill="white"/>
<path d="M40.1494 73.5721C41.2784 73.5721 41.8423 73.9704 41.8423 74.7649C41.8423 75.2654 41.6546 75.6022 41.2794 75.774V75.7866C41.2962 75.7783 41.4659 75.774 41.7881 75.774H43.0559V76.3162H39.2026C38.869 76.3162 38.6481 76.3225 38.5394 76.3329V75.8117C38.548 75.8096 38.5771 75.8064 38.6272 75.8034C38.675 75.7981 38.7502 75.7938 38.8522 75.7909C38.9555 75.7855 39.0255 75.7824 39.0609 75.7824V75.7701C38.8608 75.6729 38.7148 75.547 38.6229 75.3906C38.5312 75.232 38.4852 75.0236 38.4852 74.7649C38.4852 74.3646 38.6187 74.0664 38.8856 73.8684C39.1525 73.6712 39.5737 73.5721 40.1494 73.5721ZM40.1576 74.1393C39.7071 74.1393 39.386 74.201 39.1944 74.323C39.0004 74.446 38.9023 74.6387 38.9023 74.9026C38.9023 75.1172 38.9473 75.285 39.0358 75.407C39.1256 75.5269 39.2652 75.6187 39.457 75.6825C39.6489 75.7439 39.8969 75.774 40.1993 75.774C40.6279 75.774 40.9436 75.7073 41.146 75.5739C41.3462 75.4383 41.4462 75.2173 41.4462 74.9109C41.4462 74.6419 41.3482 74.446 41.1503 74.323C40.953 74.201 40.6226 74.1393 40.1576 74.1393Z" fill="white"/>
<path d="M41.8423 72.0687C41.8423 72.3973 41.758 72.6434 41.5879 72.807C41.4161 72.9687 41.1794 73.0488 40.8791 73.0488C40.5433 73.0488 40.2857 72.9394 40.1075 72.7194C39.9273 72.5006 39.8302 72.144 39.8158 71.6518L39.8072 70.9221H39.6281C39.3641 70.9221 39.1754 70.9793 39.0609 71.093C38.9473 71.2046 38.8898 71.3796 38.8898 71.6185C38.8898 71.8603 38.9316 72.0375 39.0151 72.148C39.0962 72.2566 39.2267 72.3223 39.4068 72.3442L39.3569 72.9071C38.773 72.8152 38.4813 72.3815 38.4813 71.606C38.4813 71.1973 38.5749 70.8906 38.7607 70.6843C38.9473 70.4788 39.2182 70.3758 39.5737 70.3758H40.9667C41.1283 70.3758 41.2493 70.355 41.3296 70.3131C41.4107 70.2715 41.4505 70.1922 41.4505 70.0756C41.4505 70.0232 41.4441 69.9629 41.4297 69.8961H41.7674C41.7975 70.0328 41.8132 70.1714 41.8132 70.3131C41.8132 70.5132 41.7622 70.6593 41.6589 70.751C41.5535 70.8429 41.3877 70.8949 41.1628 70.9054V70.9221C41.4107 71.0617 41.5858 71.2224 41.688 71.4058C41.7903 71.5873 41.8423 71.8082 41.8423 72.0687ZM41.4379 71.9478C41.4379 71.7509 41.3942 71.5758 41.3044 71.4226C41.2159 71.2672 41.0939 71.1452 40.9375 71.0556C40.779 70.967 40.6165 70.9221 40.4497 70.9221H40.1828L40.1953 71.5141C40.1982 71.7677 40.2243 71.9593 40.2743 72.0898C40.3223 72.2212 40.3954 72.3213 40.4955 72.3901C40.5956 72.4597 40.727 72.4942 40.8873 72.4942C41.0627 72.4942 41.1991 72.4472 41.2962 72.3524C41.391 72.2585 41.4379 72.1232 41.4379 71.9478Z" fill="white"/>
<path d="M38.5394 68.2062C38.5394 67.8058 38.6104 67.5056 38.7521 67.3054C38.892 67.1052 39.0922 67.0051 39.3526 67.0051C39.5395 67.0051 39.6948 67.0625 39.8197 67.1759C39.9428 67.2907 40.0242 67.4554 40.0659 67.6724H40.0866C40.12 67.417 40.2024 67.2251 40.3328 67.0969C40.464 66.9664 40.6362 66.9008 40.85 66.9008C41.1417 66.9008 41.3712 67.0113 41.538 67.2304C41.7027 67.4471 41.7841 67.7495 41.7841 68.1352V69.4697H38.5394V68.2062ZM41.3838 68.9318V68.2227C41.3838 67.9475 41.3419 67.7546 41.2586 67.643C41.1732 67.5296 41.0365 67.4722 40.85 67.4722C40.6498 67.4722 40.5078 67.5325 40.4245 67.6516C40.341 67.7714 40.2994 67.9748 40.2994 68.2603V68.9318H41.3838ZM38.9523 68.9318H39.9116V68.2812C39.9116 68.0257 39.876 67.8432 39.8031 67.7348C39.7311 67.6265 39.6052 67.5723 39.4236 67.5723C39.2601 67.5723 39.1399 67.6243 39.065 67.7266C38.9899 67.8266 38.9523 67.9977 38.9523 68.2396V68.9318Z" fill="white"/>
<path d="M40.3535 64.9209C40.3535 64.974 40.3485 65.0335 40.3369 65.1003C40.3266 65.1649 40.3119 65.215 40.2954 65.2505L41.7841 66.0846V66.6851L40.0074 65.6258C39.9521 65.6957 39.7885 65.8238 39.5155 66.0093L38.5394 66.6558V66.0929L39.2568 65.6509C39.4685 65.5204 39.6217 65.4192 39.7157 65.3464C39.8072 65.2743 39.8721 65.2086 39.9073 65.1504C39.9439 65.0899 39.9617 65.0127 39.9617 64.9209H38.5394V64.3831H39.9617C39.9617 64.3225 39.9532 64.2683 39.9366 64.2203C39.9198 64.1733 39.8864 64.1245 39.8365 64.0743C39.7864 64.0223 39.7157 63.9617 39.6238 63.895C39.5321 63.8282 39.1714 63.6011 38.5394 63.2112V62.6483L39.5155 63.2944C39.7885 63.4813 39.9521 63.6094 40.0074 63.6782L41.7841 62.6189V63.2194L40.2954 64.0535C40.3119 64.0933 40.3266 64.1442 40.3369 64.2078C40.3485 64.2726 40.3535 64.3308 40.3535 64.3831H41.7841V64.9209H40.3535Z" fill="white"/>
<path d="M38.5394 61.6295H39.9116V60.1698H38.5394V59.6277H41.7841V60.1698H40.3076V61.6295H41.7841V62.1675H38.5394V61.6295Z" fill="white"/>
<path d="M41.8423 57.5113C41.8423 57.9733 41.6995 58.3266 41.4129 58.5706C41.1273 58.8156 40.708 58.9376 40.1576 58.9376C39.6185 58.9376 39.2048 58.8167 38.915 58.5748C38.6262 58.3309 38.4813 57.9775 38.4813 57.5155C38.4813 57.1736 38.5646 56.8931 38.7314 56.6732C38.8982 56.4511 39.1306 56.3102 39.4279 56.252L39.4695 56.8066C39.0775 56.8712 38.8816 57.113 38.8816 57.5323C38.8816 57.8107 38.9649 58.016 39.1317 58.1494C39.2985 58.2829 39.5696 58.3579 39.9449 58.3747V57.136H40.341V58.3747C41.0731 58.3392 41.4379 58.0557 41.4379 57.5238C41.4379 57.3236 41.3867 57.1589 41.2837 57.0276C41.1814 56.8942 41.0208 56.8106 40.804 56.7773L40.8414 56.2312C41.1481 56.276 41.391 56.4124 41.5713 56.6398C41.7529 56.8651 41.8423 57.1557 41.8423 57.5113Z" fill="white"/>
<path d="M38.5394 53.9551V53.413H39.9617C39.9617 53.3546 39.9532 53.3025 39.9366 53.2545C39.9198 53.2046 39.8864 53.1544 39.8365 53.1045C39.7864 53.0522 39.7157 52.994 39.6238 52.9294C39.5321 52.8627 39.1714 52.6331 38.5394 52.241V51.6782L39.5155 52.3289C39.7885 52.5122 39.9521 52.6403 40.0074 52.7124L41.7841 51.6531V52.2536L40.2954 53.0837C40.3119 53.1232 40.3266 53.1752 40.3369 53.2419C40.3485 53.3068 40.3535 53.3628 40.3535 53.413H41.7841V53.9551H38.5394Z" fill="white"/>
<path d="M40.1494 48.5255C41.2784 48.5255 41.8423 48.9237 41.8423 49.718C41.8423 50.2185 41.6546 50.5553 41.2794 50.7275V50.7397C41.2962 50.7315 41.4659 50.7275 41.7881 50.7275H43.0559V51.2695H39.2026C38.869 51.2695 38.6481 51.2757 38.5394 51.2861V50.7648C38.548 50.7627 38.5771 50.7597 38.6272 50.7565C38.675 50.7512 38.7502 50.7472 38.8522 50.744C38.9555 50.7387 39.0255 50.7357 39.0609 50.7357V50.7232C38.8608 50.6263 38.7148 50.5001 38.6229 50.3436C38.5312 50.1851 38.4852 49.9767 38.4852 49.718C38.4852 49.3177 38.6187 49.0196 38.8856 48.8215C39.1525 48.6246 39.5737 48.5255 40.1494 48.5255ZM40.1576 49.0924C39.7071 49.0924 39.386 49.1541 39.1944 49.2761C39.0004 49.3991 38.9023 49.5921 38.9023 49.8558C38.9023 50.0706 38.9473 50.2382 39.0358 50.3602C39.1256 50.4803 39.2652 50.5718 39.457 50.6356C39.6489 50.697 39.8969 50.7275 40.1993 50.7275C40.6279 50.7275 40.9436 50.6607 41.146 50.5273C41.3462 50.3917 41.4462 50.1707 41.4462 49.864C41.4462 49.595 41.3482 49.3991 41.1503 49.2761C40.953 49.1541 40.6226 49.0924 40.1576 49.0924Z" fill="white"/>
<path d="M41.8423 47.0231C41.8423 47.3514 41.758 47.5975 41.5879 47.7611C41.4161 47.9229 41.1794 48.0029 40.8791 48.0029C40.5433 48.0029 40.2857 47.8935 40.1075 47.6736C39.9273 47.4547 39.8302 47.0981 39.8158 46.606L39.8072 45.8763H39.6281C39.3641 45.8763 39.1754 45.9337 39.0609 46.0471C38.9473 46.1587 38.8898 46.334 38.8898 46.5726C38.8898 46.8144 38.9316 46.9916 39.0151 47.1021C39.0962 47.2108 39.2267 47.2764 39.4068 47.2983L39.3569 47.8612C38.773 47.7694 38.4813 47.3357 38.4813 46.5601C38.4813 46.1514 38.5749 45.845 38.7607 45.6385C38.9473 45.4332 39.2182 45.3299 39.5737 45.3299H40.9667C41.1283 45.3299 41.2493 45.3091 41.3296 45.2672C41.4107 45.2256 41.4505 45.1463 41.4505 45.0297C41.4505 44.9776 41.4441 44.917 41.4297 44.8503H41.7674C41.7975 44.987 41.8132 45.1255 41.8132 45.2672C41.8132 45.4674 41.7622 45.6134 41.6589 45.7052C41.5535 45.797 41.3877 45.8491 41.1628 45.8595V45.8763C41.4107 46.0159 41.5858 46.1765 41.688 46.3599C41.7903 46.5414 41.8423 46.7624 41.8423 47.0231ZM41.4379 46.902C41.4379 46.705 41.3942 46.5299 41.3044 46.3767C41.2159 46.2214 41.0939 46.0994 40.9375 46.0097C40.779 45.9211 40.6165 45.8763 40.4497 45.8763H40.1828L40.1953 46.4683C40.1982 46.7218 40.2243 46.9134 40.2743 47.044C40.3223 47.1753 40.3954 47.2754 40.4955 47.3442C40.5956 47.4139 40.727 47.4483 40.8873 47.4483C41.0627 47.4483 41.1991 47.4016 41.2962 47.3066C41.391 47.2129 41.4379 47.0773 41.4379 46.902Z" fill="white"/>
<path d="M40.1494 40.0566C40.7165 40.0566 41.1409 40.1505 41.4211 40.336C41.7027 40.5194 41.8423 40.7927 41.8423 41.1533C41.8423 41.6038 41.6546 41.9083 41.2794 42.0666V42.0834C41.4545 42.0751 41.6245 42.0709 41.7881 42.0709H43.0559V42.5796H41.7881C41.5713 42.5796 41.3963 42.5745 41.2629 42.563V42.5796C41.4713 42.6714 41.6202 42.7923 41.7088 42.9426C41.7975 43.0904 41.8423 43.2751 41.8423 43.4972C41.8423 43.8703 41.707 44.1455 41.4337 44.3227C41.1585 44.501 40.7405 44.5896 40.1785 44.5896C39.0474 44.5896 38.4813 44.2258 38.4813 43.4972C38.4813 43.2719 38.5271 43.0864 38.6187 42.9383C38.7083 42.788 38.8501 42.6693 39.0442 42.5796V42.563L38.5939 42.5796H37.3343V42.0709H38.5939L39.0609 42.0791V42.0626C38.8554 41.9708 38.7083 41.8539 38.6187 41.7122C38.5301 41.5683 38.4852 41.3817 38.4852 41.1533C38.4852 40.7863 38.6219 40.5132 38.8941 40.3318C39.1672 40.1484 39.5851 40.0566 40.1494 40.0566ZM40.1576 44.0224C40.6079 44.0224 40.9321 43.9683 41.1294 43.8599C41.3275 43.7515 41.4254 43.5794 41.4254 43.3429C41.4254 43.0843 41.3285 42.8945 41.1335 42.7715C40.9364 42.6495 40.6236 42.586 40.1953 42.5796H40.1242C39.702 42.5796 39.3892 42.6402 39.1858 42.7589C38.9836 42.8758 38.8816 43.0696 38.8816 43.3386C38.8816 43.5805 38.9846 43.7555 39.1901 43.8642C39.3964 43.9704 39.7186 44.0224 40.1576 44.0224ZM40.1576 40.6237C39.7239 40.6237 39.4068 40.6779 39.2067 40.7863C39.0046 40.8928 38.9023 41.0647 38.9023 41.3035C38.9023 41.4933 38.9483 41.6404 39.0399 41.7455C39.1317 41.852 39.2726 41.9321 39.4613 41.9873C39.6508 42.0436 39.8969 42.0709 40.1993 42.0709H40.2702C40.6706 42.0655 40.9667 42.0031 41.1585 41.8832C41.3504 41.7613 41.4462 41.5704 41.4462 41.3118C41.4462 41.0732 41.344 40.8989 41.1376 40.7906C40.9321 40.6801 40.606 40.6237 40.1576 40.6237Z" fill="white"/>
<path d="M38.5394 39.8284V37.2261H38.9316V38.2561H41.7841V38.7981H38.9316V39.8284H38.5394Z" fill="white"/>
<path d="M40.1576 34.0305C40.728 34.0305 41.1523 34.1557 41.4297 34.4058C41.7048 34.6561 41.8423 35.0188 41.8423 35.4942C41.8423 35.9677 41.6995 36.3242 41.4129 36.5661C41.1241 36.8079 40.7061 36.9288 40.1576 36.9288C39.0399 36.9288 38.4813 36.4452 38.4813 35.4776C38.4813 34.9804 38.6176 34.6142 38.8898 34.3807C39.1629 34.1472 39.5851 34.0305 40.1576 34.0305ZM40.1576 34.5977C39.7104 34.5977 39.386 34.6644 39.1858 34.7979C38.9836 34.9313 38.8816 35.1544 38.8816 35.4651C38.8816 35.7819 38.9846 36.0114 39.1901 36.1532C39.3964 36.2928 39.7186 36.3616 40.1576 36.3616C40.586 36.3616 40.9082 36.2928 41.1251 36.1532C41.34 36.0144 41.4463 35.7966 41.4463 35.4985C41.4463 35.1763 41.3419 34.946 41.1335 34.8061C40.9249 34.6676 40.5997 34.5977 40.1576 34.5977Z" fill="white"/>
<path d="M38.5394 32.0808C38.5394 31.6805 38.6104 31.3802 38.7521 31.18C38.892 30.9799 39.0922 30.8798 39.3526 30.8798C39.5395 30.8798 39.6948 30.9372 39.8197 31.0509C39.9428 31.1656 40.0242 31.3303 40.0659 31.547H40.0866C40.12 31.2916 40.2024 31.0997 40.3328 30.9716C40.464 30.8414 40.6362 30.7757 40.85 30.7757C41.1417 30.7757 41.3712 30.8862 41.538 31.105C41.7027 31.3218 41.7841 31.6242 41.7841 32.0101V33.3446H38.5394V32.0808ZM41.3838 32.8065V32.0977C41.3838 31.8222 41.3419 31.6295 41.2586 31.5179C41.1732 31.4042 41.0365 31.3469 40.85 31.3469C40.6498 31.3469 40.5078 31.4074 40.4245 31.5262C40.341 31.6461 40.2994 31.8494 40.2994 32.135V32.8065H41.3838ZM38.9523 32.8065H39.9116V32.1558C39.9116 31.9004 39.876 31.7181 39.8031 31.6098C39.7311 31.5011 39.6052 31.4469 39.4236 31.4469C39.2601 31.4469 39.1399 31.4993 39.065 31.6012C38.9899 31.7013 38.9523 31.8724 38.9523 32.1142V32.8065Z" fill="white"/>
<path d="M40.2743 29.7548C40.6476 29.7548 40.9354 29.6787 41.1376 29.5255C41.3378 29.3702 41.4379 29.1449 41.4379 28.85C41.4379 28.6143 41.392 28.4267 41.3003 28.2868C41.2066 28.1451 41.0864 28.0493 40.9415 27.9991L41.075 27.528C41.5869 27.7197 41.8423 28.1609 41.8423 28.85C41.8423 29.3285 41.7006 29.6923 41.4172 29.9424C41.1313 30.1928 40.7061 30.3179 40.1408 30.3179C39.6052 30.3179 39.1944 30.1928 38.9107 29.9424C38.6251 29.6923 38.4813 29.3357 38.4813 28.8708C38.4813 27.918 39.0556 27.4405 40.2035 27.4405H40.2743V29.7548ZM39.8616 27.9951C39.5195 28.0263 39.2715 28.1139 39.1152 28.2577C38.9598 28.4027 38.8816 28.61 38.8816 28.8791C38.8816 29.1409 38.9691 29.3483 39.1442 29.5004C39.3172 29.6536 39.556 29.7361 39.8616 29.7465V27.9951Z" fill="white"/>
<path d="M38.5394 22.5632H41.7841V23.1012H38.9316V24.4982H41.7841V25.0363H38.5394V22.5632Z" fill="white"/>
<path d="M38.5394 21.1932H40.3162L41.146 21.2226L38.5394 19.7253V19.1373H41.7841V19.6503H39.8072C39.7354 19.6503 39.627 19.6481 39.4821 19.642C39.335 19.6337 39.2307 19.6273 39.1693 19.6212L41.7841 21.139V21.7145H38.5394V21.1932Z" fill="white"/>
<path d="M38.5394 17.0219C38.5394 16.6215 38.6104 16.3213 38.7521 16.1211C38.892 15.9209 39.0922 15.8208 39.3526 15.8208C39.5395 15.8208 39.6948 15.8782 39.8197 15.9919C39.9428 16.1067 40.0242 16.2714 40.0659 16.4881H40.0866C40.12 16.2327 40.2024 16.041 40.3328 15.9126C40.464 15.7824 40.6362 15.7167 40.85 15.7167C41.1417 15.7167 41.3712 15.8272 41.538 16.0461C41.7027 16.2631 41.7841 16.5652 41.7841 16.9511V18.2856H38.5394V17.0219ZM41.3838 17.7476V17.0387C41.3838 16.7635 41.3419 16.5705 41.2586 16.459C41.1732 16.3453 41.0365 16.2879 40.85 16.2879C40.6498 16.2879 40.5078 16.3485 40.4245 16.4673C40.341 16.5871 40.2994 16.7905 40.2994 17.0761V17.7476H41.3838ZM38.9523 17.7476H39.9116V17.0971C39.9116 16.8417 39.876 16.6592 39.8031 16.5508C39.7311 16.4422 39.6052 16.388 39.4236 16.388C39.2601 16.388 39.1399 16.4403 39.065 16.5423C38.9899 16.6423 38.9523 16.8134 38.9523 17.0552V17.7476Z" fill="white"/>
<path d="M40.1576 12.3647C40.728 12.3647 41.1523 12.4899 41.4297 12.74C41.7048 12.9904 41.8423 13.3531 41.8423 13.8287C41.8423 14.3019 41.6995 14.6585 41.4129 14.9003C41.1241 15.1421 40.7061 15.263 40.1576 15.263C39.0399 15.263 38.4813 14.7794 38.4813 13.8119C38.4813 13.3146 38.6176 12.9487 38.8898 12.7152C39.1629 12.4816 39.5851 12.3647 40.1576 12.3647ZM40.1576 12.9319C39.7104 12.9319 39.386 12.9986 39.1858 13.1321C38.9836 13.2655 38.8816 13.4887 38.8816 13.7993C38.8816 14.1164 38.9846 14.3457 39.1901 14.4874C39.3964 14.6272 39.7186 14.6961 40.1576 14.6961C40.586 14.6961 40.9082 14.6272 41.1251 14.4874C41.34 14.3489 41.4463 14.1308 41.4463 13.8327C41.4463 13.5105 41.3419 13.2802 41.1335 13.1404C40.9249 13.0018 40.5997 12.9319 40.1576 12.9319Z" fill="white"/>
</svg>
