<svg width="1800" height="1221" viewBox="0 0 1800 1221" fill="none" xmlns="http://www.w3.org/2000/svg">
<path fill-rule="evenodd" clip-rule="evenodd" d="M899.31 30.4485C867.847 30.4485 836.997 35.262 806.742 44.9093C709 76.0172 611.025 107.384 512.791 139.004C414.735 170.609 317.687 202.072 221.65 233.337L121.216 265.81C102.972 271.891 87.0601 281.107 73.5472 293.448C60.0145 305.951 49.4541 320.676 41.8458 337.576C34.394 354.477 30.5898 372.666 30.4333 392.103C30.4333 510.285 30.4333 628.554 30.4333 746.899C30.5898 766.514 34.497 784.859 42.1054 801.939C49.7137 819.021 60.2722 833.802 73.8069 846.32C87.4958 858.822 103.463 868.135 121.733 874.218L200.612 899.579C300.012 931.878 400.446 964.412 501.89 997.219C603.513 1030.01 704.861 1062.56 805.966 1094.86C836.916 1104.67 867.943 1109.56 899.051 1109.56C930.316 1109.74 961.008 1105.08 991.102 1095.61C1094.59 1062.82 1198.23 1029.59 1302.03 995.951C1405.84 962.311 1508.55 929.002 1610.17 896.032L1680.67 872.95C1698.26 867.207 1713.64 858.153 1726.83 845.807C1740.19 833.305 1750.59 818.681 1758.02 801.939C1765.47 785.2 1769.27 767.366 1769.43 748.427C1769.61 706.997 1769.61 665.587 1769.43 624.157V395.151C1769.43 374.172 1765.63 355.07 1758.02 337.83C1750.59 320.417 1739.77 305.459 1725.56 292.936C1711.54 280.59 1694.54 271.12 1674.58 264.542C1615.92 245.602 1557.25 226.581 1498.58 207.479C1416.75 180.931 1334.07 154.221 1250.56 127.333C1167.03 100.273 1083.59 73.405 1000.24 46.6744C966.415 35.8553 932.771 30.4485 899.31 30.4485ZM900.578 1140.26C865.747 1140.08 831.169 1134.59 796.836 1123.77C695.569 1091.47 594.2 1058.92 492.756 1026.13C391.155 993.337 290.644 960.784 191.217 928.49L112.34 903.129C89.8533 895.697 70.2401 884.284 53.518 868.892C36.5953 853.497 23.4986 835.328 14.2081 814.365C4.8939 793.401 0.156526 770.911 0 746.899C0 628.554 0 510.285 0 392.103C0.156526 368.086 4.8939 345.778 14.2081 325.149C23.4986 304.348 36.514 286.261 53.2583 270.882C70.0027 255.665 89.5145 244.334 111.849 236.883L212.262 204.431C308.294 173.145 405.443 141.703 503.677 110.077C601.733 78.2998 699.708 46.8521 797.607 15.7441C831.763 4.93018 866.675 -0.31958 902.338 0.0151367C938.026 0.349854 973.785 6.27429 1009.63 17.7679C1092.8 44.4783 1176.24 71.3611 1259.93 98.4264C1343.46 125.294 1426.13 152.024 1507.98 178.552C1566.64 197.674 1625.31 216.695 1683.98 235.615C1707.99 243.4 1728.62 255.072 1745.85 270.623C1763.09 286.002 1776.37 304.267 1785.68 325.408C1795.13 346.706 1799.87 369.952 1799.87 395.151V624.157C1800.04 665.743 1800.04 707.173 1799.87 748.427C1799.7 771.763 1794.97 793.736 1785.68 814.365C1776.54 834.989 1763.78 853 1747.38 868.374C1730.81 883.591 1711.7 894.845 1690.06 902.115L1619.56 924.94C1517.94 958.072 1415.23 991.376 1311.43 1024.86C1207.6 1058.51 1103.88 1091.73 1000.24 1124.52C967.607 1135 934.379 1140.26 900.578 1140.26Z" fill="#A59C88" fill-opacity="0.2"/>
<rect x="239" y="895" width="719" height="326" fill="white" fill-opacity="0.7"/>
</svg>
