<svg width="1920" height="420" viewBox="0 0 1920 420" fill="none" xmlns="http://www.w3.org/2000/svg">
<path fill-rule="evenodd" clip-rule="evenodd" d="M850.021 17.5837C886.646 6.04441 923.531 0.190207 960.687 0C996.745 0 1032.19 5.60059 1067 16.7828C1177.56 51.7621 1288.21 87.2 1398.96 123.086C1509.69 158.805 1619.26 194.33 1727.66 229.67L1802.86 254.017C1825.94 261.771 1846.34 273.776 1864.01 290.007C1881.51 306.407 1895.12 325.618 1904.87 347.617C1914.78 369.622 1919.83 393.059 1920 417.951L0 419.581C0.166973 393.968 5.22055 369.979 15.1565 347.617C25.0671 325.257 39.0378 305.877 57.0901 289.455C74.9283 273.036 95.8507 260.863 119.838 252.935L203.979 225.883C310.043 191.436 417.263 156.713 525.645 121.733C633.861 86.7563 741.995 52.0326 850.021 17.5837Z" fill="#fff"/>
</svg>
