<svg width="1920" height="421" viewBox="0 0 1920 421" fill="none" xmlns="http://www.w3.org/2000/svg">
<path d="M849.958 402.455C886.581 413.995 923.463 419.849 960.616 420.039C996.671 420.039 1032.11 414.438 1066.92 403.256C1177.47 368.277 1288.11 332.839 1398.86 296.953C1509.58 261.234 1619.14 225.71 1727.54 190.369L1802.73 166.022C1825.81 158.268 1846.2 146.264 1863.87 130.033C1881.37 113.633 1894.98 94.4217 1904.73 72.4232C1914.64 50.4181 1919.69 26.9804 1919.86 2.08841L0 0.458771C0.166961 26.0714 5.22016 50.061 15.1554 72.4232C25.0652 94.7831 39.0349 114.163 57.0859 130.585C74.9228 147.003 95.8436 159.177 119.829 167.105L203.964 194.156C310.021 228.603 417.232 263.326 525.606 298.306C633.814 333.283 741.94 368.007 849.958 402.455Z" fill="white"/>
</svg>
