<svg idth="1920" height="320" viewBox="0 0 1920 320" fill="none" xmlns="http://www.w3.org/2000/svg">
	<path fill="red" class="st0" d="M853,401.5c36.6,11.5,73.5,17.4,110.7,17.6c36.1,0,71.5-5.6,106.3-16.8c110.5-35,221.2-70.4,331.9-106.3
	    c110.7-35.7,220.3-71.2,328.7-106.6l75.2-24.3c23.1-7.8,43.5-19.8,61.1-36c17.5-16.4,31.1-35.6,40.9-57.6c9.9-22,15-45.4,15.1-70.3
	    L3-0.5c0.2,25.6,5.2,49.6,15.2,72c9.9,22.4,23.9,41.7,41.9,58.2c17.8,16.4,38.8,28.6,62.7,36.5l84.1,27.1
	    c106.1,34.4,213.3,69.2,321.6,104.1C636.8,332.3,744.9,367.1,853,401.5z"/>

 </svg>